<svg data-name="Слой 1" xmlns="http://www.w3.org/2000/svg" viewBox="0 0 20 20"><path d="M10.002 4.872A5.128 5.128 0 1 0 15.13 10a5.12 5.12 0 0 0-5.127-5.128zm0 8.462A3.334 3.334 0 1 1 13.335 10a3.34 3.34 0 0 1-3.333 3.334zm6.532-8.671a1.196 1.196 0 1 1-1.195-1.196 1.193 1.193 0 0 1 1.195 1.196zm3.396 1.213a5.92 5.92 0 0 0-1.616-4.19A5.955 5.955 0 0 0 14.125.07c-1.65-.093-6.599-.093-8.25 0a5.947 5.947 0 0 0-4.19 1.611A5.939 5.939 0 0 0 .07 5.871c-.093 1.652-.093 6.601 0 8.253a5.92 5.92 0 0 0 1.615 4.19 5.964 5.964 0 0 0 4.19 1.616c1.65.093 6.6.093 8.25 0a5.917 5.917 0 0 0 4.19-1.616 5.959 5.959 0 0 0 1.615-4.19c.093-1.652.093-6.596 0-8.248zm-2.133 10.02a3.374 3.374 0 0 1-1.9 1.9c-1.317.523-4.44.402-5.895.402s-4.582.116-5.894-.401a3.375 3.375 0 0 1-1.9-1.902c-.523-1.316-.402-4.44-.402-5.895s-.116-4.583.401-5.895a3.375 3.375 0 0 1 1.901-1.901c1.316-.523 4.44-.402 5.894-.402s4.582-.116 5.894.402a3.375 3.375 0 0 1 1.9 1.9c.523 1.317.403 4.441.403 5.896s.12 4.583-.402 5.895z" style="fill:#fff"/></svg>