<svg id="bb6a6547-d387-4dd2-92a0-26612c0d440e" data-name="Слой 1" xmlns="http://www.w3.org/2000/svg" viewBox="0 0 58 20"><defs><style>.f2d3195c-b228-4d77-bfbd-bbe19ac94852{fill:#191919}</style></defs><path class="f2d3195c-b228-4d77-bfbd-bbe19ac94852" d="M0 19.566V.216h6.69a6.865 6.865 0 0 1 2.444.432 6.232 6.232 0 0 1 2.009 1.215 5.696 5.696 0 0 1 1.86 4.297 5.693 5.693 0 0 1-1.86 4.27 6.223 6.223 0 0 1-2.01 1.214 6.865 6.865 0 0 1-2.441.432H3.048v7.486zM6.771 9.16a3.36 3.36 0 0 0 1.349-.254 2.952 2.952 0 0 0 .998-.689 3.077 3.077 0 0 0 .62-.972 2.896 2.896 0 0 0 .216-1.08 2.999 2.999 0 0 0-.836-2.069 3.204 3.204 0 0 0-2.344-.958H3.048v6.025zm8.605-2.836v13.242h2.995V6.324z"/><path d="M18.876 2.025a1.977 1.977 0 0 1-.58 1.432 1.904 1.904 0 0 1-1.417.594V.001a1.907 1.907 0 0 1 1.417.594 1.98 1.98 0 0 1 .58 1.43z" style="fill:#35af39"/><path d="M16.877 0v4.054a1.932 1.932 0 0 1-1.439-.595 1.974 1.974 0 0 1-.582-1.434 1.977 1.977 0 0 1 .582-1.43A1.938 1.938 0 0 1 16.877 0z" style="fill:#00bafc"/><path class="f2d3195c-b228-4d77-bfbd-bbe19ac94852" d="m24.953 12.836-4.56-6.512h3.481l2.86 4.189h.08l2.667-4.189h3.615l-4.613 6.512 4.694 6.73H29.62l-2.86-4.324h-.08l-2.836 4.324h-3.531zm21.797 3.568a7.196 7.196 0 0 1-2.375 2.567A6.634 6.634 0 0 1 40.599 20a6.993 6.993 0 0 1-2.737-.527A6.485 6.485 0 0 1 35.69 18a6.756 6.756 0 0 1-1.43-2.23 7.548 7.548 0 0 1-.513-2.824 7.603 7.603 0 0 1 .485-2.715 6.918 6.918 0 0 1 1.362-2.244 6.484 6.484 0 0 1 4.87-2.094 6.918 6.918 0 0 1 2.738.514 5.807 5.807 0 0 1 2.037 1.432 6.278 6.278 0 0 1 1.281 2.216 8.694 8.694 0 0 1 .445 2.834v.243a1.22 1.22 0 0 0-.027.243.897.897 0 0 0-.027.216H36.742a4.19 4.19 0 0 0 .458 1.649 3.857 3.857 0 0 0 .93 1.161 3.635 3.635 0 0 0 1.229.676 4.287 4.287 0 0 0 1.321.216 3.485 3.485 0 0 0 2.132-.621 5.145 5.145 0 0 0 1.374-1.539zm-2.78-5.108a3.8 3.8 0 0 0-.256-.905 2.77 2.77 0 0 0-.62-.917 3.585 3.585 0 0 0-1.079-.716 3.897 3.897 0 0 0-1.604-.297 3.385 3.385 0 0 0-2.226.77 3.77 3.77 0 0 0-1.254 2.065zm5.262-4.972h2.829v2h.161a3.724 3.724 0 0 1 .665-.955 4.334 4.334 0 0 1 .945-.763 5.999 5.999 0 0 1 1.106-.513 3.42 3.42 0 0 1 1.12-.201 4.328 4.328 0 0 1 1.105.122 3.567 3.567 0 0 1 .837.337l-.863 2.73a2.864 2.864 0 0 0-.661-.203 4.924 4.924 0 0 0-.877-.068 2.975 2.975 0 0 0-1.336.3 3.458 3.458 0 0 0-1.065.814 3.737 3.737 0 0 0-.715 1.222 4.34 4.34 0 0 0-.256 1.494v6.926h-2.99z"/></svg>